<svg width="520" height="483" viewBox="0 0 520 483" fill="none" xmlns="http://www.w3.org/2000/svg">
<g clip-path="url(#clip0_26667_25601)">
<path d="M282.773 482.014C409.997 482.014 513.132 475.037 513.132 466.429C513.132 457.822 409.997 450.844 282.773 450.844C155.549 450.844 52.4141 457.822 52.4141 466.429C52.4141 475.037 155.549 482.014 282.773 482.014Z" fill="#232323" style="fill:#232323;fill:color(display-p3 0.1375 0.1375 0.1375);fill-opacity:1;"/>
<path d="M322.819 407.961C362.402 443.688 360.2 471.209 310.724 475.603C261.247 480.007 225.733 469.879 237.168 438.892C248.604 407.905 322.819 407.961 322.819 407.961Z" fill="#FF814A" style="fill:#FF814A;fill:color(display-p3 1.0000 0.5059 0.2902);fill-opacity:1;"/>
<path d="M290.065 480.244C263.08 480.244 244.232 474.654 236.072 463.99C230.662 456.925 229.879 448.049 233.725 437.62C245.865 404.71 319.23 404.285 322.796 404.285H322.829C323.735 404.285 324.607 404.621 325.289 405.235C348.003 425.737 357.561 443.891 352.933 457.73C348.864 469.904 334.768 477.147 311.058 479.26C303.613 479.92 296.604 480.255 290.076 480.255L290.065 480.244ZM321.421 411.641C311.36 411.842 250.213 414.133 240.599 440.157C237.637 448.184 238.062 454.522 241.896 459.53C250.325 470.541 275.298 475.068 310.399 471.949C330.643 470.149 342.951 464.426 345.969 455.394C349.49 444.875 340.771 429.37 321.421 411.641Z" fill="#232323" style="fill:#232323;fill:color(display-p3 0.1375 0.1375 0.1375);fill-opacity:1;"/>
<path d="M132.058 407.961C92.4741 443.688 94.6763 471.209 144.153 475.603C193.629 480.007 229.144 469.879 217.708 438.892C206.272 407.905 132.058 407.961 132.058 407.961Z" fill="#FF814A" style="fill:#FF814A;fill:color(display-p3 1.0000 0.5059 0.2902);fill-opacity:1;"/>
<path d="M164.811 480.239C158.282 480.239 151.273 479.915 143.828 479.244C120.119 477.132 106.022 469.888 101.953 457.714C97.3253 443.875 106.883 425.721 129.598 405.22C130.269 404.616 131.141 404.281 132.057 404.27H132.091C135.646 404.27 209.011 404.694 221.162 437.604C225.007 448.034 224.225 456.898 218.814 463.974C210.654 474.639 191.807 480.228 164.822 480.228L164.811 480.239ZM133.466 411.625C114.104 429.354 105.396 444.87 108.906 455.389C111.925 464.41 124.221 470.134 144.477 471.945C179.577 475.064 204.55 470.547 212.979 459.525C216.813 454.517 217.238 448.179 214.276 440.153C205.814 417.237 154.403 411.849 133.477 411.625H133.466Z" fill="#232323" style="fill:#232323;fill:color(display-p3 0.1375 0.1375 0.1375);fill-opacity:1;"/>
<path d="M419.517 333.254C390.858 342.504 338.463 321.911 294.787 260.065L381.905 206.986C406.419 230.337 422.299 251.232 431.332 269.042C448.831 303.542 440.594 326.462 419.517 333.254Z" fill="#F4D93B" style="fill:#F4D93B;fill:color(display-p3 0.9569 0.8510 0.2314);fill-opacity:1;"/>
<path d="M297.523 258.132C312.333 278.494 329.807 297.212 350.686 311.418C368.407 323.196 389.185 333.088 410.804 331.001C426.415 329.366 436.89 319.143 436.914 303.135C436.463 278.748 420.339 255.83 405.466 237.322C397.336 227.621 388.838 218.228 380.868 208.084C379.796 206.78 381.506 204.854 382.956 205.898C393.543 213.463 402.779 222.667 411.09 232.667C427.288 252.563 444.159 276.487 444.754 303.221C444.872 318.313 436.563 331.728 422.001 336.661C387.922 347.797 347.224 322.088 323.514 299.224C311.757 287.958 301.277 275.355 292.049 262.008C289.655 258.369 294.853 254.613 297.53 258.14L297.523 258.132Z" fill="#232323" style="fill:#232323;fill:color(display-p3 0.1375 0.1375 0.1375);fill-opacity:1;"/>
<path d="M402.355 333.176C402.355 333.176 402.344 333.199 402.355 333.221C402.064 339.012 401.416 344.556 400.387 349.855C388.493 412.142 327.726 441.531 254.417 452.597L254.194 452.62C197.943 460.802 125.751 458.578 90.6283 408.744C88.0684 405.111 85.6985 401.209 83.5522 397.051C60.2113 352.649 67.8128 300.859 71.7029 252.724C73.6256 231.485 73.9274 210.022 74.7882 188.648C75.213 178.42 75.7607 168.203 76.6886 158.052C80.1875 116.379 97.8497 78.0247 132.95 54.069C137.858 50.6595 142.933 47.6189 148.142 44.9249C174.982 31.0411 205.321 26.592 234.005 31.1193C272.839 37.2452 308.645 59.7813 328.643 97.5314C339.486 117.06 346.339 138.289 353.247 159.517H353.258C355.271 165.766 357.305 171.992 359.44 178.174C365.085 194.986 371.379 211.553 377.84 228.075C385.263 247.157 392.674 266.362 397.38 286.316C399.169 293.772 400.466 300.926 401.304 307.779C402.411 316.733 402.746 325.195 402.355 333.176Z" fill="#F4D93B" style="fill:#F4D93B;fill:color(display-p3 0.9569 0.8510 0.2314);fill-opacity:1;"/>
<path d="M123.539 228.845L71.4609 259.256L74.79 188.645C75.2148 178.417 75.7626 168.199 76.6904 158.049C80.1893 116.375 97.8515 78.0217 132.952 54.066C137.86 50.6565 142.935 47.6159 148.144 44.9219L156.081 48.8567C97.3149 108.137 123.539 228.845 123.539 228.845Z" fill="#F2C33D" style="fill:#F2C33D;fill:color(display-p3 0.9490 0.7647 0.2392);fill-opacity:1;"/>
<path d="M353.248 159.519C352.499 158.747 351.705 157.585 350.855 155.964C336.837 129.146 315.028 60.8226 233.715 37.1575L234.005 31.1211C272.84 37.247 308.645 59.783 328.644 97.5332C339.487 117.062 346.339 138.29 353.248 159.519Z" fill="white" style="fill:white;fill-opacity:1;"/>
<path d="M206.852 459.943C188.832 459.943 172.254 458.177 157.241 454.633C120.911 446.071 95.0212 427.268 80.299 398.74C58.8249 357.883 62.8827 311.715 66.8064 267.056C67.2424 262.149 67.6671 257.275 68.0584 252.424C69.4781 236.818 70.0147 220.822 70.54 205.351C71.0654 189.712 71.6132 173.536 73.0552 157.719C76.9118 111.752 97.4581 73.8679 130.904 51.0524C164.261 27.8792 206.215 20.1212 245.988 29.7795C283.682 38.9348 314.2 62.3875 331.907 95.8227C342.784 115.419 349.793 136.96 356.556 157.797C358.613 164.113 360.725 170.641 362.928 177.002C368.953 194.921 375.582 212.214 381.283 226.758C388.247 244.666 396.139 264.955 400.979 285.501C410.94 327.13 406.591 362.186 388.057 389.686C364.917 424.015 320.147 446.417 254.987 456.243L254.763 456.277C237.873 458.736 221.876 459.954 206.885 459.954L206.852 459.943ZM212.061 33.0549C184.707 33.0549 157.778 41.3047 135.041 57.0888C103.427 78.6524 84.0103 114.614 80.3437 158.356C78.9128 173.995 78.3762 190.058 77.8508 205.597C77.3255 221.168 76.7777 237.277 75.3468 253.05C74.9556 257.868 74.5308 262.775 74.0948 267.694C70.2606 311.29 66.3033 356.374 86.7825 395.342C117.714 455.237 194.589 457.573 253.646 448.988L253.858 448.955C316.894 439.442 359.988 418.102 381.931 385.55C399.269 359.828 403.26 326.728 393.792 287.167C389.063 267.112 381.607 247.941 374.397 229.396C368.673 214.774 362 197.38 355.941 179.338C353.739 172.944 351.604 166.382 349.536 160.044C342.873 139.542 335.976 118.348 325.412 99.2992C308.667 67.6862 279.848 45.5414 244.211 36.8891C233.58 34.3069 222.77 33.0325 212.039 33.0325L212.061 33.0549Z" fill="#232323" style="fill:#232323;fill:color(display-p3 0.1375 0.1375 0.1375);fill-opacity:1;"/>
<path d="M186.392 234.628L186.516 234.638H186.64C212.754 234.638 240.856 233.415 262.41 232.195C273.192 231.585 282.345 230.975 288.803 230.518C292.032 230.289 294.588 230.098 296.338 229.964C296.566 229.946 296.781 229.929 296.981 229.913L299.447 234.547C261.171 251.281 204.362 254.371 156.178 253.081C131.539 252.421 109.32 250.623 93.2607 248.99C85.2329 248.174 78.7482 247.399 74.2744 246.829C72.5519 246.61 71.1275 246.419 70.0283 246.27V225.392L186.392 234.628Z" fill="#FF5A5A" stroke="#232323" style="fill:#FF5A5A;fill:color(display-p3 1.0000 0.3529 0.3529);fill-opacity:1;stroke:#232323;stroke:color(display-p3 0.1375 0.1375 0.1375);stroke-opacity:1;" stroke-width="6.26028"/>
<path d="M359.149 191.868C343.879 208.614 317.777 218.965 317.777 218.965L321.109 228.959C346.316 222.598 363.107 211.297 371.256 204.735C374.665 201.985 375.526 197.156 373.313 193.378C370.294 188.235 363.162 187.464 359.149 191.868Z" fill="#FF5A5A" style="fill:#FF5A5A;fill:color(display-p3 1.0000 0.3529 0.3529);fill-opacity:1;"/>
<path d="M361.339 193.857C355.549 200.24 348.786 205.584 341.598 210.256C334.365 214.895 327.043 218.909 319.129 222.363L321.253 217.791L324.584 227.784L320.202 225.392C334.041 223.537 347.187 217.824 358.958 210.458C361.898 208.591 364.749 206.59 367.499 204.477C369.734 202.89 372.015 200.855 371.87 197.882C371.814 192.438 364.928 189.721 361.339 193.846V193.857ZM356.957 189.867C367.107 179.593 383.048 192.292 375.055 204.388C374.005 205.997 372.004 207.328 370.528 208.457C367.61 210.625 364.592 212.649 361.507 214.538C349.132 222.229 335.628 227.382 322.013 232.513C320.336 233.15 318.447 232.312 317.81 230.624L317.765 230.512C317.765 230.512 317.631 230.121 317.631 230.11L314.3 220.116C313.663 218.26 314.613 216.248 316.424 215.544C331.179 209.519 345.756 201.369 356.957 189.867Z" fill="#232323" style="fill:#232323;fill:color(display-p3 0.1375 0.1375 0.1375);fill-opacity:1;"/>
<path d="M300.089 239.736C309.736 259.724 314.443 301.543 315.728 314.723C315.963 317.182 317.696 319.239 320.077 319.898L342.289 326.058C345.307 326.896 348.459 325.264 349.51 322.313L355.971 304.248C356.497 302.773 356.429 301.152 355.781 299.732C338.041 261.3 316.097 232.504 316.097 232.504L300.078 239.725L300.089 239.736Z" fill="#FF5A5A" style="fill:#FF5A5A;fill:color(display-p3 1.0000 0.3529 0.3529);fill-opacity:1;"/>
<path d="M303.534 240.989C304.149 241.447 304.507 241.85 304.652 242.543C305.502 245.628 303.881 245.416 304.775 248.456C310.476 268.276 315.898 292.075 318.134 312.532C318.234 313.147 318.268 314.678 318.514 315.271C319.218 316.825 319.866 317.149 321.834 317.652L325.12 318.557L331.693 320.368C334.499 321.14 340.021 322.66 342.783 323.398C344.37 323.945 346.293 323.085 346.863 321.497L349.087 315.17C350.25 311.839 352.139 306.473 353.279 303.187C353.503 302.494 353.458 301.7 353.167 301.04C349.803 293.953 346.237 286.922 342.47 280.058C333.728 264.363 324.036 249.015 313.17 234.729L317.597 235.847C312.958 237.982 308.464 239.446 303.523 240.978L303.534 240.989ZM296.648 238.485C302.338 235.187 308.543 231.867 314.601 229.173C316.177 228.424 318.033 228.938 319.028 230.291C329.771 245.326 339.228 260.898 347.869 277.152C351.077 283.222 354.185 289.348 357.058 295.596L358.544 298.805C359.36 300.761 359.439 302.985 358.779 304.986C357.583 308.306 355.593 313.706 354.375 317.071L351.994 323.565C350.764 326.673 347.634 328.875 344.314 328.987C342.883 329.087 341.486 328.663 340.133 328.26L336.858 327.332C333.583 326.405 326.998 324.583 323.734 323.666C321.476 322.895 318.402 322.57 316.446 320.972C314.512 319.507 313.293 317.182 313.115 314.768L312.947 313.08C311.337 297.419 309.18 281.612 305.815 266.253C304.194 259.177 302.618 252.033 299.342 245.539C298.225 243.381 297.207 240.877 296.648 238.507V238.485Z" fill="#232323" style="fill:#232323;fill:color(display-p3 0.1375 0.1375 0.1375);fill-opacity:1;"/>
<path d="M308.262 214.036L295.373 219.86C288.946 222.766 285.681 230.01 287.761 236.751C289.348 241.904 293.764 245.694 299.107 246.476L308.039 247.784C312.89 248.5 317.775 246.622 320.894 242.832L325.835 236.829C330.183 231.553 330.083 223.918 325.611 218.753L324.628 217.613C320.57 212.929 313.919 211.476 308.273 214.025L308.262 214.036Z" fill="#FF5A5A" style="fill:#FF5A5A;fill:color(display-p3 1.0000 0.3529 0.3529);fill-opacity:1;"/>
<path d="M309.775 217.39C305.941 219.179 300.072 221.761 296.35 223.65C293.946 224.992 292.147 227.261 291.208 229.832C290.861 230.693 290.459 231.587 290.202 232.571C289.564 234.549 290.179 236.751 291.398 238.372C294.953 242.833 300.698 242.754 305.818 244.241L307.651 244.722C312.682 246.421 317.287 244.398 319.758 239.714C320.641 238.272 322.374 235.645 323.257 234.236C324.375 232.425 324.945 230.48 325.638 228.457C326.219 226.579 326.32 224.231 325.202 222.521C321.859 217.938 315.219 215.087 309.775 217.412V217.39ZM306.746 210.694C314.046 207.262 323.179 209.241 327.371 216.418C328.041 217.535 329.07 219 329.539 220.207C331.495 224.243 333.362 228.938 331.954 233.487C331.283 235.578 330.143 237.489 328.656 239.099C327.639 240.161 325.302 242.341 324.207 243.369C319.724 248.277 313.554 251.261 306.791 250.669C303.359 250.49 300.609 250.546 297.076 249.886C290.772 248.612 286.759 242.732 285.182 236.953C283.651 232.537 283.249 227.563 285.92 223.438C287.496 220.665 289.967 218.385 292.795 216.932L306.768 210.705L306.746 210.694Z" fill="#232323" style="fill:#232323;fill:color(display-p3 0.1375 0.1375 0.1375);fill-opacity:1;"/>
<path d="M230.692 43.2817C250.4 -1.09738 196.106 -6.60843 197.581 21.8076C197.581 21.8076 163.263 0.57941 138.558 11.8586C113.854 23.1378 155.08 64.957 199.649 52.0792" fill="#F4D93B" style="fill:#F4D93B;fill:color(display-p3 0.9569 0.8510 0.2314);fill-opacity:1;"/>
<path d="M134.694 26.7827C135.823 13.6591 192.935 21.7859 192.935 21.7859L199.184 19.3043C207.679 6.04644 230.305 15.2911 231.68 30.1587C233.055 45.0262 233.726 27.9118 233.726 27.9118L227.432 7.41022L213.179 3.53125L199.553 10.1602L193.427 18.7789L171.55 13.0331L146.935 6.66126L132.19 14.1621L128.691 22.6578L134.694 26.7827Z" fill="white" style="fill:white;fill-opacity:1;"/>
<path d="M228.894 42.4871C230.515 33.9802 232.952 24.5566 228.816 16.6422C222.153 4.36806 200.467 6.15664 201.238 22.1644C201.316 24.9702 197.806 26.6694 195.649 24.9255C180.267 16.6981 159.609 8.97364 142.472 14.943C128.544 19.2244 138.783 32.2028 146.116 37.9039C150.867 41.6599 156.345 44.6669 162.124 46.8356C174.085 51.3405 186.415 51.2176 199.203 50.5916C200.88 50.4463 201.551 52.8273 200.064 53.5874C181.62 63.3687 156.702 56.8516 140.773 44.6781C131.987 37.9933 121.915 25.0373 129.315 13.814C136.044 4.73695 151.068 3.6191 160.906 4.64753C174.845 6.32432 187.6 11.5112 199.505 18.699L193.916 22.0079C192.876 13.8699 197.471 5.23999 205.251 2.02056C221.304 -4.83193 238.832 6.51435 238.955 23.9753C239.044 27.7537 238.384 31.3979 237.233 34.7627C236.082 38.1274 234.506 41.2686 232.482 44.0745C231.834 44.9687 230.582 45.17 229.676 44.5216C229.017 44.0409 228.726 43.2361 228.894 42.4759V42.4871Z" fill="#232323" style="fill:#232323;fill:color(display-p3 0.1375 0.1375 0.1375);fill-opacity:1;"/>
<path d="M283.739 143.074C283.203 144.158 282.331 145.164 281.179 145.969C271.074 153.045 239.595 160.647 226.125 159.227C219.876 158.523 217.484 152.811 222.782 147.635C226.796 143.722 230.451 140.469 233.961 137.854C247.442 127.826 258.744 127.256 279.726 135.014C284.209 136.646 285.181 140.145 283.739 143.074Z" fill="#FF814A" style="fill:#FF814A;fill:color(display-p3 1.0000 0.5059 0.2902);fill-opacity:1;"/>
<path d="M283.739 143.074C267.407 133.505 248.359 132.488 234.319 141.174C234.319 141.174 234.129 139.743 233.961 137.854C247.442 127.826 258.744 127.256 279.726 135.014C284.209 136.646 285.181 140.145 283.739 143.074Z" fill="white" style="fill:white;fill-opacity:1;"/>
<path d="M220.623 145.424C226.995 139.466 234.127 133.273 242.422 129.786C252.471 125.247 264.287 126.924 274.292 130.02C276.237 130.546 278.126 131.239 280.026 131.854C282.564 132.636 285.023 134.045 286.454 136.47C288.757 140.249 287.27 145.246 284.062 147.951C281.714 149.874 278.819 151.349 276.091 152.601C263.527 158.257 236.62 165.3 223.239 162.025C215.336 159.431 214.822 150.567 220.612 145.436L220.623 145.424ZM224.938 149.851C222.043 152.735 222.49 155.742 226.883 155.899L228.985 155.977C240.879 155.597 253.287 152.746 264.79 149.337C269.049 147.984 273.319 146.453 277.299 144.418L279.065 143.368C279.233 143.278 279.344 143.2 279.423 143.122C280.306 142.518 281.1 141.501 281.122 140.439C281.122 139.008 279.255 138.091 277.925 137.655C276.136 137.007 274.314 136.269 272.503 135.721C250.828 128.221 240.175 134.358 224.938 149.851Z" fill="#232323" style="fill:#232323;fill:color(display-p3 0.1375 0.1375 0.1375);fill-opacity:1;"/>
<path d="M348.048 443.754C296.057 469.219 224.715 451.78 224.715 451.78L273.431 447.611L318.95 435.035L338.066 426.941L348.06 443.754H348.048Z" fill="#232323" style="fill:#232323;fill:color(display-p3 0.1375 0.1375 0.1375);fill-opacity:1;"/>
<circle cx="199.564" cy="135.717" r="10.2635" fill="#232323" style="fill:#232323;fill:color(display-p3 0.1375 0.1375 0.1375);fill-opacity:1;"/>
<circle cx="274.068" cy="109.865" r="10.2635" fill="#232323" style="fill:#232323;fill:color(display-p3 0.1375 0.1375 0.1375);fill-opacity:1;"/>
</g>
<path d="M47.8268 375.067C76.4858 384.316 128.881 363.724 172.557 301.878L85.4386 248.798C60.9247 272.149 45.0451 293.044 36.012 310.855C18.5129 345.355 26.7502 368.274 47.8268 375.067Z" fill="#F4D93B" style="fill:#F4D93B;fill:color(display-p3 0.9569 0.8510 0.2314);fill-opacity:1;"/>
<path d="M169.825 299.948C155.015 320.31 137.541 339.028 116.662 353.234C98.9408 365.013 78.1622 374.905 56.5436 372.817C40.9323 371.182 30.4574 360.959 30.4336 344.952C30.8849 320.565 47.0086 297.646 61.8813 279.138C70.0115 269.437 78.5102 260.045 86.4797 249.9C87.5514 248.596 85.8419 246.671 84.3913 247.715C73.8044 255.28 64.569 264.483 56.2572 274.483C40.0597 294.379 23.189 318.303 22.5932 345.037C22.4754 360.129 30.7843 373.544 45.347 378.477C79.4253 389.613 120.124 363.904 143.833 341.04C155.591 329.774 166.071 317.171 175.298 303.825C177.693 300.186 172.495 296.43 169.818 299.957L169.825 299.948Z" fill="#232323" style="fill:#232323;fill:color(display-p3 0.1375 0.1375 0.1375);fill-opacity:1;"/>
<defs>
<clipPath id="clip0_26667_25601">
<rect width="514.898" height="482.021" fill="white" style="fill:white;fill-opacity:1;" transform="translate(4.51953)"/>
</clipPath>
</defs>
</svg>
